<svg version="1.1" id="Layer_1" xmlns="http://www.w3.org/2000/svg" xmlns:xlink="http://www.w3.org/1999/xlink" x="0px" y="0px" viewBox="0 0 29.799 27" style="enable-background:new 0 0 29.799 27;" xml:space="preserve">
<g id="hiking_1_">
<polygon points="5.799,21 2.799,27 5.799,27 8.799,21 8.256,17.739 4.206,16.221 	" id="id_101" style="fill: rgb(255, 255, 255);"></polygon>
<circle cx="12.299" cy="2.5" r="2.5" id="id_102" style="fill: rgb(255, 255, 255);"></circle>
<rect x="-1.158" y="6.052" transform="matrix(0.4391 -0.8984 0.8984 0.4391 -4.928 7.8736)" width="10" height="3.663" id="id_103" style="fill: rgb(255, 255, 255);"></rect>
<polygon style="opacity: 0.75; fill: rgb(255, 255, 255);" points="29.799,11 28.799,11 26.799,15 23.799,17 21.799,21 19.799,21 14.799,25 9.799,25 7.799,27 
		29.799,27 	" id="id_104"></polygon>
<polygon points="18.799,9 18.799,10 15.799,10 12.799,7 8.799,5 3.799,15 11.799,18 11.799,24 13.799,24 14.799,17 9.999,14.199 
		11.799,9 14.799,12 18.799,11.2 18.799,20 19.799,20 19.799,9 	" id="id_105" style="fill: rgb(255, 255, 255);"></polygon>
</g>
</svg>