<svg version="1.1" id="Layer_1" xmlns="http://www.w3.org/2000/svg" xmlns:xlink="http://www.w3.org/1999/xlink" x="0px" y="0px" viewBox="0 0 107.1572 207.1545" enable-background="new 0 0 107.1572 207.1545" xml:space="preserve">
<g>
<path d="M41.5429,22.5476c0.8692-3.2446,2.1758-6.2549,3.8262-9c-1.8848-2.438-4.2969-4.5303-7.1914-6.0762
		c-10.957-5.8516-24.5879-1.7129-30.4414,9.2442C1.8848,27.6745,6.0234,41.3034,16.9804,47.156
		c8.583,4.5854,18.8037,3.039,25.6426-3.1113C40.1064,37.3943,39.5654,29.928,41.5429,22.5476z" id="id_101" style="fill: rgb(255, 255, 255);"></path>
<path d="M66.6425,91.5154c-2.6523-0.9297-3.959-1.9571-5.1152-2.8604l-0.3301-0.2588c-1.123-0.9297-2.1582-1.9111-3.4121-3.2207
		c-1.7851-1.8818-3.707-4.1269-6.0469-7.0723c-3.3398-4.2158-6.1504-8.1425-6.9355-9.246
		c-3.5195-5.004-2.3281-11.879,2.6269-15.3692c0.1172-0.082,0.2383-0.1548,0.3575-0.2319c-0.7286-0.937-1.4073-1.9107-2.0371-2.9146
		c-2.7178,3.0635-4.8946,7.0181-6.0684,11.9688C34.9794,82.7312,35,95.8562,40.3466,116.9148l-32.748,15.9316
		c-3.4697,1.6875-6.0176,4.7256-7.0752,8.437c-1.0586,3.71-0.4981,7.6353,1.5596,10.8999l30.667,48.6675
		c2.5654,4.0723,6.9511,6.3037,11.4345,6.3037c2.459,0,4.9483-0.6714,7.1817-2.0786c6.3095-3.977,8.2021-12.312,4.2275-18.6206
		L32.958,150.5339l35.7861-17.4097c1.1601-0.5644,2.1934-1.2807,3.1084-2.101c6.7236-3.0674,11.4541-8.7354,7.3193-21.3701
		c-3.8867-7.4957-5.4492-13.2789-5.7383-18.1373c-1.0781,0.3497-2.2226,0.5376-3.4043,0.5376
		C68.8789,92.0534,67.7402,91.8728,66.6425,91.5154z" id="id_102" style="fill: rgb(255, 255, 255);"></path>
<path d="M78.2188,69.6985c-0.3096-0.9204-0.6494-1.8912-1.0322-2.9327c-2.167,0.105-4.3643,0.0039-6.5703-0.3076
		c-1.0108-0.1426-2.0215-0.3296-3.0332-0.5639c-0.3926-0.0913-0.7862-0.1787-1.1788-0.2842
		c-4.1962-1.124-8.0078-2.9702-11.3466-5.3618c1.8515,4.2124,3.3164,7.7309,4.4287,10.602
		c0.8467,2.1753,1.4892,3.9819,1.9502,5.4111c-2.0088-2.103-3.5078-3.8989-3.8155-4.6865c-1.4834-3.8261-3.4931-8.56-6-14.1372
		c-0.8964-0.833-1.749-1.7065-2.5507-2.6235c-0.1641,0.1006-0.3291,0.1963-0.4883,0.3086
		c-4.0625,2.8613-5.0332,8.4765-2.1719,12.542v-0.003c0.0586,0.0821,3.1563,4.4825,6.8945,9.1983
		c1.8789,2.3652,3.9004,4.8008,5.9297,6.9336c1.0235,1.0732,2.041,2.0703,3.1856,3.0185c1.0566,0.8194,2.0312,1.6704,3.958,2.4668
		c0.29,0.1284,0.5888,0.2442,0.8974,0.3438v-0.003c0.8633,0.2754,1.9063,0.5049,3.2012,0.5088c0.0274,0,0.0547,0,0.0801,0
		c0.8428,0,1.8281-0.1494,2.831-0.4585c0.5997-0.185,1.2041-0.413,1.792-0.7397c2.4707-1.3252,3.9512-3.6553,4.5059-5.2891
		c0.5996-1.6963,0.6621-2.9531,0.6758-4.0361c-0.0147-1.0732-0.1123-2.0317-0.2676-2.9688
		c-0.0879-0.5302-0.1943-1.0566-0.3184-1.5898c-0.165-0.7095-0.3554-1.4341-0.5703-2.2168
		C78.9278,71.8689,78.5976,70.8225,78.2188,69.6985z" id="id_103" style="fill: rgb(255, 255, 255);"></path>
<path d="M79.2138,63.0779c12.4824-1.4776,23.4053-10.3545,26.8565-23.2364c4.5254-16.8799-5.4942-34.2334-22.375-38.7549
		C69.1425-2.8152,54.247,4.0984,47.5146,16.8923c-1.0771,2.0469-1.9531,4.2393-2.5771,6.5674
		c-1.3536,5.0517-1.3965,10.1426-0.3516,14.9224c0.2031,0.9321,0.4492,1.8515,0.7344,2.7573
		c0.7392,2.3452,1.7461,4.5918,2.998,6.6953c0.8281,1.3916,1.7637,2.7183,2.7969,3.9707c0.1045,0.1269,0.207,0.2554,0.3144,0.3809
		c0.3955,0.4643,0.8008,0.9213,1.2227,1.3637c3.083,3.2232,6.8828,5.8208,11.2324,7.5322c1.083,0.4263,2.1973,0.8008,3.3457,1.1124
		c0.0283,0.0073,0.0547,0.0166,0.0821,0.0239c2.8574,0.7656,5.7265,1.1054,8.5468,1.0752c0.7061-0.0073,1.4102-0.0362,2.1094-0.0908
		C78.3858,63.1701,78.8008,63.1272,79.2138,63.0779z M63.3691,28.3991c1.7969-6.7031,8.6855-10.6806,15.3867-8.8828
		c6.7012,1.7959,10.6817,8.6856,8.8867,15.3877c-1.7968,6.7012-8.6894,10.6826-15.3906,8.8858
		c-1.21-0.3238-2.3271-0.8189-3.3408-1.4439c-1.75-1.0786-3.1797-2.5571-4.2022-4.2793c-0.4121-0.6933-0.7568-1.4253-1.0293-2.187
		c-0.4882-1.3628-0.7353-2.8169-0.7255-4.3047C62.9609,30.5251,63.0849,29.4607,63.3691,28.3991z" id="id_104" style="fill: rgb(255, 255, 255);"></path>
<path d="M73.2558,40.0427c4.6348,1.2412,9.3984-1.5088,10.6406-6.1436c1.2422-4.6328-1.5117-9.3935-6.1445-10.6347
		c-4.6328-1.2432-9.3945,1.5058-10.6367,6.1387C65.873,34.0359,68.621,38.8015,73.2558,40.0427z" id="id_105" style="fill: rgb(255, 255, 255);"></path>
</g>
</svg>